<?xml version="1.0" encoding="utf-8"?>
<!-- Generator: Adobe Illustrator 19.2.1, SVG Export Plug-In . SVG Version: 6.00 Build 0)  -->
<svg version="1.1"
	 id="svg2" xmlns:cc="http://creativecommons.org/ns#" xmlns:dc="http://purl.org/dc/elements/1.1/" xmlns:rdf="http://www.w3.org/1999/02/22-rdf-syntax-ns#" xmlns:svg="http://www.w3.org/2000/svg"
	 xmlns="http://www.w3.org/2000/svg" xmlns:xlink="http://www.w3.org/1999/xlink" x="0px" y="0px" viewBox="0 0 600 300"
	 style="enable-background:new 0 0 600 300;" xml:space="preserve">
<g id="g3862" transform="translate(-0.24707682,-46.942827)">
	<path id="path3859" d="M255.5,315.3c0-13.5,6.5-25.4,19.4-35.7c12.9-10.6,26.6-15.9,41.1-15.9c8.4,0,15.8,2.2,22.4,6.6V40.4h8.4
		v251.2c0,14.5-6.2,26.5-18.6,36.1c-12.4,9.6-26.1,14.4-41.1,14.4c-8.4,0-15.7-2.5-22.1-7.4C258.6,329.5,255.5,323.1,255.5,315.3
		 M273,326.9c13.4,0,27-5.8,40.7-17.5c13.9-11.6,20.9-20.3,20.9-26c0-3.6-1.5-5.4-4.6-5.4c-9.4,0-22.3,5.6-38.8,16.7
		c-16.2,10.9-24.3,19.9-24.3,27.2C266.9,325.3,268.9,326.9,273,326.9"/>
</g>
</svg>
