<?xml version="1.0" encoding="utf-8"?>
<!-- Generator: Adobe Illustrator 19.2.1, SVG Export Plug-In . SVG Version: 6.00 Build 0)  -->
<svg version="1.1" id="svg2" xmlns:svg="http://www.w3.org/2000/svg"
	 xmlns="http://www.w3.org/2000/svg" xmlns:xlink="http://www.w3.org/1999/xlink" x="0px" y="0px" viewBox="0 0 600 300"
	 style="enable-background:new 0 0 600 300;" xml:space="preserve">
<g id="layer1" transform="translate(0,-852.362)">
	<g id="g2850">
		<path id="path2847" d="M313.6,1052.3c-7.8,2.3-14.2,6.3-19.3,11.8c-5.1,5.5-8.2,11.6-9.3,18.2c-1.1,6.6-0.2,13.1,2.7,19.5
			c2.9,6.4,8.4,11.6,16.5,15.6c1.9,0,3.1,0.7,3.6,2.2c0.5,1.5-0.2,2.2-2.1,2.2c-7.8-1.5-14.6-4.5-20.4-9
			c-10.9-8.3-17-19.1-18.1-32.2c-0.6-6.6,0-12.9,2-19.1c2-6.1,4.7-11.8,8.2-16.9c4.3-5.4,9.4-10.1,15.2-14c0.3-0.3,1.2-0.9,2.7-2
			c1.5-1,3-2,4.4-2.8c1.4-0.9,3.6-2.3,6.4-4.2l-8.8-39c-7.8,6-15.5,12.6-23.1,19.8c-7.6,7.2-14.5,14.9-20.7,22.9
			c-6.2,8-11.1,16.5-14.9,25.5c-3.7,9-5.6,18.4-5.6,28.4c0,9.2,2.1,17.9,6.3,26c4.2,8.1,9.8,15.2,16.8,21.1c7,6,15,10.7,24.1,14.1
			c9.1,3.4,18.3,5.1,27.7,5.1c0.3,0,1.8-0.1,4.4-0.4c2.6-0.3,5.4-0.7,8.3-1.1c2.9-0.4,5.6-0.9,8.1-1.4c2.5-0.5,3.7-1.1,3.7-1.6
			l-1.4-6.1C325.1,1106.2,319.2,1078.6,313.6,1052.3z M322,1051.5l19.5,87c11.3-3.9,18.9-10.7,22.8-20.3c4-9.6,4.9-19.3,2.7-29.1
			c-2.1-9.9-7.2-18.6-15.1-26.2C344,1055.3,334,1051.5,322,1051.5z M297,934.3c4.9-2.3,9.5-5.8,13.7-10.5c4.2-4.7,8.1-9.7,11.6-15
			c3.6-5.3,6.7-10.8,9.3-16.3c2.6-5.5,4.7-10.6,6.3-15.1c1.7-4.8,2.9-10.2,3.6-16.2c0.6-6-0.4-11-3.1-15.1c-1.9-3.6-4.4-5.8-7.5-6.4
			c-3.1-0.6-6.2-0.4-9.3,0.7c-3.1,1-6,2.7-8.8,4.9c-2.8,2.3-4.8,4.3-6.1,6c-3.5,5.7-6.5,12-9.2,19.1c-2.6,7-4.4,14.3-5.3,21.8
			c-1,7.5-1.1,14.7-0.4,21.7C292.6,920.7,294.3,927.6,297,934.3z M289.9,941.1c-2.7-9.6-5.1-19.1-7.1-28.4
			c-2.1-9.3-3.1-18.8-3.1-28.6c0-7.2,0.6-15,1.7-23.5c1.1-8.5,3.1-16.9,6.1-25c2.9-8.1,7-15.4,12.1-21.8c5.2-6.4,12-11.1,20.6-14
			c0.8-0.3,1.6-0.4,2.4-0.4c1.1,0,2.4,0.6,3.9,1.8c1.5,1.2,3.1,2.9,4.8,5.1c1.7,2.3,3.1,4.6,4.4,7c1.3,2.4,2.2,4.1,2.9,4.9
			c4.3,7.4,7.4,15.4,9.4,23.8c2,8.4,3.1,16.8,3.4,25.1c0.6,12.6-0.1,25-2.3,37.2c-2.1,12.3-6.5,24.2-13,35.9
			c-2.2,3.5-4.5,7-6.8,10.6c-2.3,3.6-5,7-8.2,10.4c-0.6,0.6-1.8,1.6-3.4,3.2c-1.7,1.5-3.4,3.1-5.1,4.7c-1.7,1.6-3.3,3.1-4.6,4.5
			c-1.3,1.4-2,2.2-2,2.5l9.7,43.8c0.1,0.3,4.9,0,4.9,0c9.3,0.1,19.1,1.5,27.7,4.6c8.2,3.5,15.3,8.3,21.3,14.5
			c5.9,6.1,10.7,13,14.3,20.7c3.6,7.7,5.3,15.4,5.3,23.3c0,7.9-1.3,15.9-3.8,24.1c-6.5,15.5-16.9,26.9-31.1,34.4
			c-1.6,0.9-3.8,1.9-6.8,3c-2.9,1.1-4.1,2.8-3.4,5.1c3.8,15.9,6.4,26.9,7.7,32.9c1.3,6,2.3,13.7,3,23.2c0.6,9.1-1.1,17.2-5.1,24.5
			c-4,7.3-9.5,13.3-16.3,17.9c-6.8,4.6-13,7.3-18.7,8.1c-5.6,0.8-9.5,1.2-11.5,1.2c-7.1,0-14.1-1.2-20.9-3.7
			c-8.4-2.9-15.5-7.4-21.2-13.4c-5.7-6-8.6-13.3-8.6-21.9c0-5.4,1.7-11,5.1-16.7c3.4-5.7,7.9-9.8,13.4-12.2
			c6.2-2.9,11.8-3.7,16.8-2.4c5,1.3,9.1,3.8,12.4,7.5c3.2,3.6,5.5,8.1,6.8,13.2c1.3,5.2,1.2,10-0.2,14.6c-1.4,4.5-4.3,8.4-8.7,11.5
			c-4.4,3.2-10.4,4.6-18.2,4.3c3.2,5.3,7.6,8.6,13.3,10c5.7,1.4,11.6,1.5,17.6,0.3c6-1.2,11.7-3.3,17-6.5c5.3-3.1,9.5-6.5,12.5-10.2
			c1.9-2.6,3.3-6.1,4.3-10.3c1-4.3,1.5-8.7,1.7-13.3c0.2-4.6,0-8.2-0.5-10.7c-0.5-2.6-1.3-6.6-2.4-11.9c-4.8-17.7-7.8-28.8-9-33.3
			c-0.6-1.4-2.3-1.9-5.1-1.4c-2.8,0.5-5.1,1-7,1.4c-13.6,1.6-25,0.9-34.2-2.2c-14.3-3.5-26.8-9.7-37.7-18.7
			c-10.9-9-19.6-19.9-26.1-32.6c-6.6-12.8-9.9-22.5-9.9-29.1c0-6.6,0-10.8,0-12.6c0-11.8,2.2-22.9,6.7-33.3
			c8.4-16.2,18.3-31.1,29.8-44.7C262,965.4,275.1,952.8,289.9,941.1z"/>
	</g>
</g>
</svg>
