<?xml version="1.0" encoding="utf-8"?>
<!-- Generator: Adobe Illustrator 19.2.1, SVG Export Plug-In . SVG Version: 6.00 Build 0)  -->
<svg version="1.1"
	 id="svg2" inkscape:version="0.48.0 r9654" sodipodi:docname="New document 1" xmlns:cc="http://creativecommons.org/ns#" xmlns:dc="http://purl.org/dc/elements/1.1/" xmlns:inkscape="http://www.inkscape.org/namespaces/inkscape" xmlns:rdf="http://www.w3.org/1999/02/22-rdf-syntax-ns#" xmlns:sodipodi="http://sodipodi.sourceforge.net/DTD/sodipodi-0.dtd" xmlns:svg="http://www.w3.org/2000/svg"
	 xmlns="http://www.w3.org/2000/svg" xmlns:xlink="http://www.w3.org/1999/xlink" x="0px" y="0px" viewBox="0 0 600 300"
	 style="enable-background:new 0 0 600 300;" xml:space="preserve">
<sodipodi:namedview  bordercolor="#666666" borderopacity="1.0" fit-margin-bottom="0" fit-margin-left="0" fit-margin-right="0" fit-margin-top="0" id="base" inkscape:current-layer="layer3" inkscape:cx="60.051216" inkscape:cy="100" inkscape:document-units="px" inkscape:pageopacity="0.0" inkscape:pageshadow="2" inkscape:window-height="1000" inkscape:window-maximized="1" inkscape:window-width="1680" inkscape:window-x="-8" inkscape:window-y="-8" inkscape:zoom="3.905" pagecolor="#ffffff" showgrid="false">
	</sodipodi:namedview>
<g id="layer3" inkscape:groupmode="layer" inkscape:label="note">
	<path id="text1412" inkscape:connector-curvature="0" sodipodi:nodetypes="cccccccccccccscsccccc" d="M207,117.4v92.8
		c0,0,0,6.3,0,18.8c8.3-8,17.6-12.1,27.9-12.3c6.4,0,12,2.8,16.6,8.5c4,5.3,6.2,11.1,6.3,17.6c0.2,5.1-1,10.9-3.6,17.6
		c-0.9,2.7-2.9,5.7-6.1,8.8c-2.4,2.3-4.9,4.8-7.5,7.3c-13.6,10.6-27.2,21.2-40.9,31.9v-191H207 M229.4,235.4
		c-2.2-2.7-5.1-4.1-8.6-4.1c-4.4,0-8,2.6-10.8,7.9c-2,4.1-3,13.8-3,29v25.2c0.2,0.8,5.3-4,15.5-14.4c5.5-5.5,9.1-11.9,10.8-19.3
		c0.7-2.9,1.1-5.9,1.1-8.8C234.4,244.5,232.7,239.3,229.4,235.4"/>
</g>
</svg>
